Face Off - Night Terrors - S02E04

Releaser:
r3mnants
 
http://s13.postimage.org/fa3q4ktg5/FO1.png 
http://s13.postimage.org/kk8ovvdp1/FO2.png

Format : MPEG-4
Format profile : Base Media
Codec ID : isom
File size : 693 MiB
Duration : 42mn 59s
Overall bit rate mode : Variable
Overall bit rate : 2 253 Kbps

Video
ID : 1
Format : AVC
Format/Info : Advanced Video Codec
Format profile : High@L4.0
Format settings, CABAC : Yes
Format settings, ReFrames : 3 frames
Codec ID : avc1
Codec ID/Info : Advanced Video Coding
Duration : 42mn 59s
Bit rate mode : Variable
Bit rate : 2 121 Kbps
Maximum bit rate : 25.0 Mbps
Width : 1280 pixels
Height : 720 pixels
Display aspect ratio : 16:9
Frame rate mode : Constant
Frame rate : 29.970 fps
Color space : YUV
Chroma subsampling : 4:2:0
Bit depth : 8 bits
Scan type : Progressive
Bits/(Pixel*Frame) : 0.077
Stream size : 652 MiB (94%)
Title : FOS02E04
Writing library : x264 core 120 r2120 0c7dab9

Audio
ID : 2
Format : AAC
Format/Info : Advanced Audio Codec
Format profile : LC
Codec ID : 40
Duration : 42mn 59s
Bit rate mode : Variable
Bit rate : 128 Kbps
Maximum bit rate : 168 Kbps
Channel(s) : 2 channels
Channel positions : Front: L R
Sampling rate : 48.0 KHz
Compression mode : Lossy
Stream size : 39.4 MiB (6%)